<?xml version="1.0" encoding="utf-8"?>
<!-- Generator: Adobe Illustrator 19.0.0, SVG Export Plug-In . SVG Version: 6.00 Build 0)  -->
<svg version="1.1" id="Слой_1" xmlns="http://www.w3.org/2000/svg" xmlns:xlink="http://www.w3.org/1999/xlink" x="0px" y="0px"
	 viewBox="-233 235 32 32" style="enable-background:new -233 235 32 32;" xml:space="preserve">
<style type="text/css">
	.st0{fill:#4CB445;}
	.st1{fill:#57CE8E;}
	.st2{fill:#57D1E9;}
	.st3{fill:#62AFFD;}
	.st4{fill:#53D417;}
	.st5{fill:#8DDB3A;}
	.st6{fill:#7ACA83;}
	.st7{fill:#638FF2;}
	.st8{fill:#B2DC10;}
	.st9{fill:#CEBE2D;}
	.st10{fill:#74858F;}
	.st11{fill:#7143EB;}
	.st12{fill:#D3B807;}
	.st13{fill:#DA9A43;}
	.st14{fill:#AC4B98;}
	.st15{fill:#8007EA;}
</style>
<rect x="-233" y="235" class="st0" width="8" height="8"/>
<rect x="-225" y="235" class="st1" width="8" height="8"/>
<rect x="-217" y="235" class="st2" width="8" height="8"/>
<rect x="-209" y="235" class="st3" width="8" height="8"/>
<rect x="-233" y="243" class="st4" width="8" height="8"/>
<rect x="-225" y="243" class="st5" width="8" height="8"/>
<rect x="-217" y="243" class="st6" width="8" height="8"/>
<rect x="-209" y="243" class="st7" width="8" height="8"/>
<rect x="-233" y="251" class="st8" width="8" height="8"/>
<rect x="-225" y="251" class="st9" width="8" height="8"/>
<rect x="-217" y="251" class="st10" width="8" height="8"/>
<rect x="-209" y="251" class="st11" width="8" height="8"/>
<rect x="-233" y="259" class="st12" width="8" height="8"/>
<rect x="-225" y="259" class="st13" width="8" height="8"/>
<rect x="-217" y="259" class="st14" width="8" height="8"/>
<rect x="-209" y="259" class="st15" width="8" height="8"/>
</svg>
